<?xml version="1.0" standalone="no"?><!DOCTYPE svg PUBLIC "-//W3C//DTD SVG 1.1//EN" "http://www.w3.org/Graphics/SVG/1.1/DTD/svg11.dtd"><svg class="icon" width="200px" height="200.00px" viewBox="0 0 1024 1024" version="1.1" xmlns="http://www.w3.org/2000/svg"><path d="M190.57142832 254.85714248h642.85714336c19.28571416 0 32.14285752 12.85714248 32.14285664 32.14285752v482.14285752H158.42857168V287c0-19.28571416 12.85714248-32.14285752 32.14285664-32.14285752z" fill="#91D5FF" /><path d="M225.92857168 126.28571416h540c19.28571416 0 35.35714248 16.07142832 35.35714248 32.14285752s-16.07142832 32.14285752-35.35714248 32.14285664H225.92857168C206.64285752 190.57142832 190.57142832 174.5 190.57142832 158.42857168s16.07142832-32.14285752 35.35714336-32.14285752z" fill="#BAE7FF" /><path d="M110.21428584 479.85714248h202.5l61.07142832 141.42857168h273.21428584l73.92857168-141.42857168h192.85714248c25.71428584 0 48.21428584 22.5 48.21428584 48.21428584v385.71428584c0 25.71428584-22.5 48.21428584-48.21428584 48.21428584h-803.57142832C84.5 962 62 939.5 62 913.78571416v-385.71428584c3.21428584-25.71428584 22.5-48.21428584 48.21428584-48.21428584z" fill="#40A9FF" /><path d="M287 769.14285752h450c19.28571416 0 32.14285752 12.85714248 32.14285752 32.14285664s-12.85714248 32.14285752-32.14285752 32.14285752H287c-19.28571416 0-32.14285752-12.85714248-32.14285752-32.14285752s12.85714248-32.14285752 32.14285752-32.14285664z" fill="#BAE7FF" /></svg>